<?xml version="1.0" encoding="utf-8"?>
<!-- Generator: Adobe Illustrator 26.0.3, SVG Export Plug-In . SVG Version: 6.00 Build 0)  -->
<svg version="1.1"
	 id="svg2" xmlns:cc="http://creativecommons.org/ns#" xmlns:dc="http://purl.org/dc/elements/1.1/" xmlns:inkscape="http://www.inkscape.org/namespaces/inkscape" xmlns:rdf="http://www.w3.org/1999/02/22-rdf-syntax-ns#" xmlns:sodipodi="http://sodipodi.sourceforge.net/DTD/sodipodi-0.dtd" xmlns:svg="http://www.w3.org/2000/svg"
	 xmlns="http://www.w3.org/2000/svg" xmlns:xlink="http://www.w3.org/1999/xlink" x="0px" y="0px" viewBox="0 0 512 512"
	 style="enable-background:new 0 0 512 512;" xml:space="preserve">
<style type="text/css">
	.st0{opacity:0.4896;clip-path:url(#SVGID_00000141423632303738353580000016547073055437324443_);}
	.st1{fill:#CCCCCC;fill-opacity:0.0588;}
	.st2{fill:#FFFFFF;}
</style>
<g id="layer1" transform="translate(0,-540.36218)">
	<path id="rect3851" d="M35.47,544.98h442.01c17.82,0,32.27,14.45,32.27,32.27v442.01c0,17.82-14.45,32.27-32.27,32.27H35.47
		c-17.82,0-32.27-14.45-32.27-32.27V577.25C3.2,559.43,17.65,544.98,35.47,544.98z"/>
	<g>
		<defs>
			<path id="SVGID_1_" d="M66.5,652.69h421.37c16.99,0,30.77,11.48,30.77,25.63v351.09c0,14.16-13.77,25.63-30.77,25.63H66.5
				c-16.99,0-30.77-11.48-30.77-25.63V678.32C35.73,664.16,49.51,652.69,66.5,652.69z"/>
		</defs>
		<clipPath id="SVGID_00000051358301275722459480000014729743217007585683_">
			<use xlink:href="#SVGID_1_"  style="overflow:visible;"/>
		</clipPath>
		
			<g id="g4145" transform="matrix(1.4092239,0,0,1.1741728,-352.59979,186.8126)" style="opacity:0.4896;clip-path:url(#SVGID_00000051358301275722459480000014729743217007585683_);">
			<g id="g4147">
				<path id="path4149" class="st1" d="M561.54,561.02c0,61.07-50.8,110.58-113.46,110.58l707.11,707.11
					c62.66,0,113.46-49.51,113.46-110.58L561.54,561.02z"/>
				<path id="path4151" class="st1" d="M448.08,671.59c-31.86,0-60.65-12.8-81.26-33.41l707.11,707.11
					c20.61,20.61,49.4,33.41,81.26,33.41L448.08,671.59z"/>
				<path id="path4153" class="st1" d="M366.81,638.19c-19.92-19.92-32.2-47.15-32.2-77.17l707.11,707.11
					c0,30.02,12.27,57.25,32.2,77.17L366.81,638.19z"/>
				<path id="path4155" class="st1" d="M334.62,561.02c0-61.07,50.8-110.58,113.46-110.58l707.11,707.11
					c-62.66,0-113.46,49.51-113.46,110.58L334.62,561.02z"/>
				<path id="path4157" class="st1" d="M448.08,450.44c31.86,0,60.65,12.8,81.26,33.41l707.11,707.11
					c-20.61-20.61-49.4-33.41-81.26-33.41L448.08,450.44z"/>
				<path id="path4159" class="st1" d="M529.34,483.85c19.92,19.92,32.2,47.15,32.2,77.17l707.11,707.11
					c0-30.02-12.27-57.25-32.2-77.17L529.34,483.85z"/>
			</g>
			<path id="path4111" class="st1" d="M561.54,561.02c0,61.07-50.8,110.58-113.46,110.58s-113.46-49.51-113.46-110.58
				s50.8-110.58,113.46-110.58S561.54,499.95,561.54,561.02z"/>
		</g>
	</g>
	<path id="path3885" class="st2" d="M402.56,918.68H340.3V813.61c0-16.5-18.52-30.2-35.02-30.2c-16.5,0-27.24,13.7-27.24,30.2
		v105.07h-62.27v-186.8h62.27v31.13c10.27-16.66,36.74-27.4,54.48-27.4c38.92,0,70.05,31.76,70.05,70.2V918.68 M184.63,918.68
		h-62.27v-186.8h62.27L184.63,918.68 M153.5,638.48c17.19,0,31.13,13.94,31.13,31.13l0,0c0,17.19-13.94,31.13-31.13,31.13
		c0,0,0,0,0,0c-17.19,0-31.13-13.94-31.13-31.13l0,0C122.37,652.42,136.3,638.48,153.5,638.48
		C153.5,638.48,153.5,638.48,153.5,638.48z"/>
</g>
</svg>
