<?xml version="1.0" encoding="utf-8"?>
<!-- Generator: Adobe Illustrator 26.0.3, SVG Export Plug-In . SVG Version: 6.00 Build 0)  -->
<svg version="1.1" id="Layer_1" xmlns="http://www.w3.org/2000/svg" xmlns:xlink="http://www.w3.org/1999/xlink" x="0px" y="0px"
	 viewBox="0 0 720 720" style="enable-background:new 0 0 720 720;" xml:space="preserve">
<g>
	<path d="M580.84,644.38H143.15c-53.51,0-97.04-47.3-97.04-105.45V259.6c0-58.14,43.53-105.45,97.04-105.45h360.08V200H143.15
		c-30.24,0-54.85,26.74-54.85,59.6v23.46l218.67,138.31c28.69,18.14,77.57,15.68,104.59-5.27l171.15-132.72
		c31.29-24.27,54.51-17.52,65.57-11.33c11.06,6.18,29.6,22.8,29.6,64.58v202.3C677.88,597.07,634.35,644.38,580.84,644.38z
		 M88.3,336.11v202.83c0,32.86,24.61,59.6,54.85,59.6h437.69c30.24,0,54.85-26.74,54.85-59.6v-202.3c0-13.86-3.38-21.95-6.72-23.82
		c-3.35-1.85-11.38-0.16-21.75,7.89L436.07,453.42c-40.88,31.7-106.91,35.02-150.31,7.58L88.3,336.11z"/>
	<path d="M594.99,251.89c-11.87,0-23.62-3.01-34.29-8.94c-16.54-9.19-28.52-24.26-33.73-42.46c-5.2-18.2-3.01-37.33,6.18-53.88
		c9.19-16.54,24.27-28.52,42.46-33.73c37.54-10.73,76.87,11.07,87.61,48.64l0,0c5.2,18.2,3.01,37.33-6.18,53.88
		s-24.26,28.52-42.46,33.73C608.12,250.98,601.53,251.89,594.99,251.89z M595.08,141.01c-3.63,0-7.32,0.5-10.98,1.55
		c-21.21,6.06-33.52,28.25-27.45,49.45c2.93,10.27,9.7,18.78,19.04,23.97c9.34,5.17,20.14,6.41,30.41,3.48
		c10.27-2.94,18.78-9.7,23.97-19.04c5.18-9.34,6.42-20.14,3.48-30.41C628.53,152.46,612.48,141.01,595.08,141.01z"/>
</g>
</svg>
