<?xml version="1.0" encoding="utf-8"?>
<!-- Generator: Adobe Illustrator 26.0.3, SVG Export Plug-In . SVG Version: 6.00 Build 0)  -->
<svg version="1.1" id="Layer_1" xmlns="http://www.w3.org/2000/svg" xmlns:xlink="http://www.w3.org/1999/xlink" x="0px" y="0px"
	 viewBox="0 0 719.76 719.83" style="enable-background:new 0 0 719.76 719.83;" xml:space="preserve">
<g>
	<path d="M359.17,700.48c-188.2,0-341.31-153.11-341.31-341.31S170.97,17.85,359.17,17.85s341.31,153.11,341.31,341.31
		S547.36,700.48,359.17,700.48z M359.17,63.22c-163.18,0-295.94,132.76-295.94,295.94s132.76,295.94,295.94,295.94
		s295.94-132.76,295.94-295.94S522.35,63.22,359.17,63.22z"/>
	<path d="M359.17,218.17c-81.9,0-161.03-29.35-222.81-82.63c-9.49-8.18-10.54-22.51-2.36-31.99c8.19-9.48,22.51-10.54,31.99-2.36
		c53.55,46.19,122.16,71.62,193.18,71.62c70.77,0,139.37-25.56,193.18-71.97c9.48-8.18,23.81-7.12,31.99,2.36
		c8.18,9.49,7.13,23.81-2.36,31.99C519.94,188.7,440.81,218.17,359.17,218.17z"/>
	<path d="M567.15,623c-5.25,0-10.52-1.81-14.8-5.51c-53.81-46.41-122.42-71.97-193.18-71.97c-70.77,0-139.37,25.56-193.18,71.97
		c-9.49,8.19-23.81,7.13-31.99-2.36c-8.18-9.48-7.12-23.81,2.36-31.99c62.04-53.51,141.17-82.98,222.81-82.98
		c81.64,0,160.77,29.47,222.81,82.98c9.49,8.18,10.54,22.51,2.36,31.99C579.85,620.33,573.52,623,567.15,623z"/>
	<path d="M359.17,700.48c-4.98,0-9.95-1.63-14.08-4.9C256.9,625.8,202.12,496.89,202.12,359.17c0-137.73,54.78-266.64,142.97-336.42
		c8.25-6.53,19.9-6.53,28.15,0c88.19,69.78,142.97,198.69,142.97,336.42c0,137.73-54.78,266.63-142.97,336.42
		C369.12,698.85,364.14,700.48,359.17,700.48z M359.17,70.35c-69.28,63.68-111.68,172.33-111.68,288.82
		c0,116.49,42.4,225.14,111.68,288.82c69.28-63.68,111.68-172.33,111.68-288.82C470.84,242.67,428.45,134.02,359.17,70.35z"/>
	<path d="M677.79,381.85H40.54c-12.53,0-22.68-10.16-22.68-22.68s10.16-22.68,22.68-22.68h637.26c12.53,0,22.68,10.16,22.68,22.68
		S690.32,381.85,677.79,381.85z"/>
</g>
</svg>
